<mxfile host="app.diagrams.net" agent="Mozilla/5.0 (Windows NT 10.0; Win64; x64) AppleWebKit/537.36 (KHTML, like Gecko) Chrome/137.0.0.0 Safari/537.36" version="27.1.4">
  <diagram name="Página-1" id="Zrk_dyl_l78BmAFkeI1E">
    <mxGraphModel dx="937" dy="509" grid="1" gridSize="10" guides="1" tooltips="1" connect="1" arrows="1" fold="1" page="1" pageScale="1" pageWidth="827" pageHeight="1169" math="0" shadow="0">
      <root>
        <mxCell id="0" />
        <mxCell id="1" parent="0" />
        <mxCell id="LHIZpoV1Z9bZ0lgE0Ra1-10" style="rounded=0;orthogonalLoop=1;jettySize=auto;html=1;exitX=1;exitY=0.3333333333333333;exitDx=0;exitDy=0;exitPerimeter=0;entryX=0;entryY=0.5;entryDx=0;entryDy=0;endArrow=none;startFill=0;" parent="1" source="LHIZpoV1Z9bZ0lgE0Ra1-1" target="LHIZpoV1Z9bZ0lgE0Ra1-4" edge="1">
          <mxGeometry relative="1" as="geometry" />
        </mxCell>
        <mxCell id="LHIZpoV1Z9bZ0lgE0Ra1-19" style="rounded=0;orthogonalLoop=1;jettySize=auto;html=1;exitX=1;exitY=0.3333333333333333;exitDx=0;exitDy=0;exitPerimeter=0;entryX=0;entryY=0.5;entryDx=0;entryDy=0;endArrow=none;startFill=0;" parent="1" source="LHIZpoV1Z9bZ0lgE0Ra1-1" target="LHIZpoV1Z9bZ0lgE0Ra1-18" edge="1">
          <mxGeometry relative="1" as="geometry" />
        </mxCell>
        <mxCell id="LHIZpoV1Z9bZ0lgE0Ra1-1" value="Usuário Geral" style="shape=umlActor;verticalLabelPosition=bottom;verticalAlign=top;html=1;outlineConnect=0;" parent="1" vertex="1">
          <mxGeometry x="40" y="20" width="30" height="60" as="geometry" />
        </mxCell>
        <mxCell id="LHIZpoV1Z9bZ0lgE0Ra1-8" style="rounded=0;orthogonalLoop=1;jettySize=auto;html=1;exitX=1;exitY=0.3333333333333333;exitDx=0;exitDy=0;exitPerimeter=0;entryX=0;entryY=0.5;entryDx=0;entryDy=0;endArrow=none;startFill=0;" parent="1" source="LHIZpoV1Z9bZ0lgE0Ra1-2" target="LHIZpoV1Z9bZ0lgE0Ra1-6" edge="1">
          <mxGeometry relative="1" as="geometry" />
        </mxCell>
        <mxCell id="LHIZpoV1Z9bZ0lgE0Ra1-21" style="rounded=0;orthogonalLoop=1;jettySize=auto;html=1;exitX=1;exitY=0.3333333333333333;exitDx=0;exitDy=0;exitPerimeter=0;entryX=0;entryY=0.5;entryDx=0;entryDy=0;endArrow=none;startFill=0;" parent="1" source="LHIZpoV1Z9bZ0lgE0Ra1-2" target="LHIZpoV1Z9bZ0lgE0Ra1-20" edge="1">
          <mxGeometry relative="1" as="geometry" />
        </mxCell>
        <mxCell id="LHIZpoV1Z9bZ0lgE0Ra1-28" style="rounded=0;orthogonalLoop=1;jettySize=auto;html=1;exitX=1;exitY=0.3333333333333333;exitDx=0;exitDy=0;exitPerimeter=0;entryX=0;entryY=0.5;entryDx=0;entryDy=0;endArrow=none;startFill=0;" parent="1" source="LHIZpoV1Z9bZ0lgE0Ra1-2" target="LHIZpoV1Z9bZ0lgE0Ra1-27" edge="1">
          <mxGeometry relative="1" as="geometry" />
        </mxCell>
        <mxCell id="LHIZpoV1Z9bZ0lgE0Ra1-2" value="ONG" style="shape=umlActor;verticalLabelPosition=bottom;verticalAlign=top;html=1;outlineConnect=0;" parent="1" vertex="1">
          <mxGeometry x="40" y="110" width="30" height="60" as="geometry" />
        </mxCell>
        <mxCell id="LHIZpoV1Z9bZ0lgE0Ra1-3" value="&lt;font style=&quot;font-size: 10px;&quot;&gt;Cadastro de usuário geral&lt;/font&gt;" style="ellipse;whiteSpace=wrap;html=1;" parent="1" vertex="1">
          <mxGeometry x="170" y="30" width="80" height="30" as="geometry" />
        </mxCell>
        <mxCell id="LHIZpoV1Z9bZ0lgE0Ra1-4" value="&lt;font style=&quot;font-size: 9px;&quot;&gt;Login de usuário geral&lt;/font&gt;" style="ellipse;whiteSpace=wrap;html=1;" parent="1" vertex="1">
          <mxGeometry x="170" y="70" width="80" height="30" as="geometry" />
        </mxCell>
        <mxCell id="LHIZpoV1Z9bZ0lgE0Ra1-14" style="rounded=0;orthogonalLoop=1;jettySize=auto;html=1;exitX=1;exitY=0.5;exitDx=0;exitDy=0;endArrow=classic;startFill=0;dashed=1;endFill=1;entryX=-0.003;entryY=0.67;entryDx=0;entryDy=0;entryPerimeter=0;" parent="1" source="LHIZpoV1Z9bZ0lgE0Ra1-5" target="LHIZpoV1Z9bZ0lgE0Ra1-12" edge="1">
          <mxGeometry relative="1" as="geometry">
            <mxPoint x="330" y="150" as="targetPoint" />
          </mxGeometry>
        </mxCell>
        <mxCell id="LHIZpoV1Z9bZ0lgE0Ra1-16" value="&lt;font style=&quot;font-size: 9px;&quot;&gt;&amp;lt;&amp;lt;included&amp;gt;&amp;gt;&lt;/font&gt;" style="edgeLabel;html=1;align=center;verticalAlign=middle;resizable=0;points=[];" parent="LHIZpoV1Z9bZ0lgE0Ra1-14" vertex="1" connectable="0">
          <mxGeometry x="-0.2429" y="1" relative="1" as="geometry">
            <mxPoint as="offset" />
          </mxGeometry>
        </mxCell>
        <mxCell id="LHIZpoV1Z9bZ0lgE0Ra1-5" value="&lt;font style=&quot;font-size: 10px;&quot;&gt;Login de adminstrador&lt;/font&gt;" style="ellipse;whiteSpace=wrap;html=1;" parent="1" vertex="1">
          <mxGeometry x="170" y="160" width="80" height="30" as="geometry" />
        </mxCell>
        <mxCell id="LHIZpoV1Z9bZ0lgE0Ra1-6" value="&lt;font style=&quot;font-size: 10px;&quot;&gt;Cadastro de responsável&lt;/font&gt;" style="ellipse;whiteSpace=wrap;html=1;" parent="1" vertex="1">
          <mxGeometry x="170" y="120" width="80" height="30" as="geometry" />
        </mxCell>
        <mxCell id="LHIZpoV1Z9bZ0lgE0Ra1-7" style="edgeStyle=orthogonalEdgeStyle;rounded=0;orthogonalLoop=1;jettySize=auto;html=1;exitX=1;exitY=0.3333333333333333;exitDx=0;exitDy=0;exitPerimeter=0;entryX=0.047;entryY=0.307;entryDx=0;entryDy=0;entryPerimeter=0;endArrow=none;startFill=0;" parent="1" source="LHIZpoV1Z9bZ0lgE0Ra1-1" target="LHIZpoV1Z9bZ0lgE0Ra1-3" edge="1">
          <mxGeometry relative="1" as="geometry" />
        </mxCell>
        <mxCell id="LHIZpoV1Z9bZ0lgE0Ra1-9" style="rounded=0;orthogonalLoop=1;jettySize=auto;html=1;exitX=1;exitY=0.3333333333333333;exitDx=0;exitDy=0;exitPerimeter=0;entryX=0;entryY=0.5;entryDx=0;entryDy=0;endArrow=none;startFill=0;" parent="1" source="LHIZpoV1Z9bZ0lgE0Ra1-2" target="LHIZpoV1Z9bZ0lgE0Ra1-5" edge="1">
          <mxGeometry relative="1" as="geometry" />
        </mxCell>
        <mxCell id="LHIZpoV1Z9bZ0lgE0Ra1-12" value="&lt;font style=&quot;font-size: 10px;&quot;&gt;Segurança de dados&lt;/font&gt;" style="ellipse;whiteSpace=wrap;html=1;" parent="1" vertex="1">
          <mxGeometry x="350" y="100" width="80" height="30" as="geometry" />
        </mxCell>
        <mxCell id="LHIZpoV1Z9bZ0lgE0Ra1-13" style="rounded=0;orthogonalLoop=1;jettySize=auto;html=1;exitX=1;exitY=0.5;exitDx=0;exitDy=0;entryX=0;entryY=0.403;entryDx=0;entryDy=0;entryPerimeter=0;dashed=1;" parent="1" source="LHIZpoV1Z9bZ0lgE0Ra1-4" target="LHIZpoV1Z9bZ0lgE0Ra1-12" edge="1">
          <mxGeometry relative="1" as="geometry" />
        </mxCell>
        <mxCell id="LHIZpoV1Z9bZ0lgE0Ra1-15" value="&lt;font style=&quot;font-size: 9px;&quot;&gt;&amp;lt;&amp;lt;included&amp;gt;&amp;gt;&lt;/font&gt;" style="edgeLabel;html=1;align=center;verticalAlign=middle;resizable=0;points=[];" parent="LHIZpoV1Z9bZ0lgE0Ra1-13" vertex="1" connectable="0">
          <mxGeometry x="-0.277" relative="1" as="geometry">
            <mxPoint as="offset" />
          </mxGeometry>
        </mxCell>
        <mxCell id="LHIZpoV1Z9bZ0lgE0Ra1-18" value="&lt;font style=&quot;font-size: 9px;&quot;&gt;Visualização dos pontos de coleta&lt;/font&gt;" style="ellipse;whiteSpace=wrap;html=1;" parent="1" vertex="1">
          <mxGeometry x="170" y="200" width="80" height="30" as="geometry" />
        </mxCell>
        <mxCell id="LHIZpoV1Z9bZ0lgE0Ra1-20" value="&lt;font style=&quot;font-size: 9px;&quot;&gt;Atualização dos pontos de coleta&lt;/font&gt;" style="ellipse;whiteSpace=wrap;html=1;" parent="1" vertex="1">
          <mxGeometry x="170" y="240" width="80" height="30" as="geometry" />
        </mxCell>
        <mxCell id="LHIZpoV1Z9bZ0lgE0Ra1-22" value="&lt;font style=&quot;font-size: 10px;&quot;&gt;Atualização&lt;/font&gt;" style="ellipse;whiteSpace=wrap;html=1;" parent="1" vertex="1">
          <mxGeometry x="350" y="220" width="80" height="30" as="geometry" />
        </mxCell>
        <mxCell id="LHIZpoV1Z9bZ0lgE0Ra1-23" style="rounded=0;orthogonalLoop=1;jettySize=auto;html=1;exitX=1;exitY=0.5;exitDx=0;exitDy=0;entryX=0;entryY=0.333;entryDx=0;entryDy=0;entryPerimeter=0;dashed=1;" parent="1" source="LHIZpoV1Z9bZ0lgE0Ra1-18" target="LHIZpoV1Z9bZ0lgE0Ra1-22" edge="1">
          <mxGeometry relative="1" as="geometry">
            <mxPoint x="280" y="190" as="sourcePoint" />
            <mxPoint x="380" y="217" as="targetPoint" />
          </mxGeometry>
        </mxCell>
        <mxCell id="LHIZpoV1Z9bZ0lgE0Ra1-24" value="&lt;font style=&quot;font-size: 9px;&quot;&gt;&amp;lt;&amp;lt;included&amp;gt;&amp;gt;&lt;/font&gt;" style="edgeLabel;html=1;align=center;verticalAlign=middle;resizable=0;points=[];" parent="LHIZpoV1Z9bZ0lgE0Ra1-23" vertex="1" connectable="0">
          <mxGeometry x="-0.277" relative="1" as="geometry">
            <mxPoint as="offset" />
          </mxGeometry>
        </mxCell>
        <mxCell id="LHIZpoV1Z9bZ0lgE0Ra1-25" style="rounded=0;orthogonalLoop=1;jettySize=auto;html=1;exitX=1;exitY=0.5;exitDx=0;exitDy=0;entryX=-0.024;entryY=0.657;entryDx=0;entryDy=0;entryPerimeter=0;dashed=1;" parent="1" source="LHIZpoV1Z9bZ0lgE0Ra1-20" target="LHIZpoV1Z9bZ0lgE0Ra1-22" edge="1">
          <mxGeometry relative="1" as="geometry">
            <mxPoint x="320" y="220" as="sourcePoint" />
            <mxPoint x="420" y="235" as="targetPoint" />
          </mxGeometry>
        </mxCell>
        <mxCell id="LHIZpoV1Z9bZ0lgE0Ra1-26" value="&lt;font style=&quot;font-size: 9px;&quot;&gt;&amp;lt;&amp;lt;included&amp;gt;&amp;gt;&lt;/font&gt;" style="edgeLabel;html=1;align=center;verticalAlign=middle;resizable=0;points=[];" parent="LHIZpoV1Z9bZ0lgE0Ra1-25" vertex="1" connectable="0">
          <mxGeometry x="-0.277" relative="1" as="geometry">
            <mxPoint as="offset" />
          </mxGeometry>
        </mxCell>
        <mxCell id="LHIZpoV1Z9bZ0lgE0Ra1-27" value="&lt;font style=&quot;font-size: 9px;&quot;&gt;Validação da entrega&lt;/font&gt;" style="ellipse;whiteSpace=wrap;html=1;" parent="1" vertex="1">
          <mxGeometry x="170" y="280" width="80" height="30" as="geometry" />
        </mxCell>
        <mxCell id="LHIZpoV1Z9bZ0lgE0Ra1-30" style="edgeStyle=orthogonalEdgeStyle;rounded=0;orthogonalLoop=1;jettySize=auto;html=1;exitX=0;exitY=0.5;exitDx=0;exitDy=0;entryX=1;entryY=0.5;entryDx=0;entryDy=0;dashed=1;startArrow=none;startFill=0;endArrow=classic;endFill=1;" parent="1" source="LHIZpoV1Z9bZ0lgE0Ra1-29" target="LHIZpoV1Z9bZ0lgE0Ra1-27" edge="1">
          <mxGeometry relative="1" as="geometry" />
        </mxCell>
        <mxCell id="LHIZpoV1Z9bZ0lgE0Ra1-31" value="&amp;lt;&amp;lt;extends&amp;gt;&amp;gt;" style="edgeLabel;html=1;align=center;verticalAlign=middle;resizable=0;points=[];" parent="LHIZpoV1Z9bZ0lgE0Ra1-30" vertex="1" connectable="0">
          <mxGeometry x="0.1686" y="-3" relative="1" as="geometry">
            <mxPoint x="18" y="3" as="offset" />
          </mxGeometry>
        </mxCell>
        <mxCell id="LHIZpoV1Z9bZ0lgE0Ra1-29" value="&lt;font style=&quot;font-size: 10px;&quot;&gt;Sistema de recompensa&lt;/font&gt;" style="ellipse;whiteSpace=wrap;html=1;" parent="1" vertex="1">
          <mxGeometry x="350" y="280" width="80" height="30" as="geometry" />
        </mxCell>
        <mxCell id="9t5kACNgiMn8HCVJOg-w-2" value="&lt;font style=&quot;font-size: 9px;&quot;&gt;Abertura e fechamento&lt;/font&gt;" style="ellipse;whiteSpace=wrap;html=1;" vertex="1" parent="1">
          <mxGeometry x="170" y="320" width="80" height="30" as="geometry" />
        </mxCell>
        <mxCell id="9t5kACNgiMn8HCVJOg-w-3" style="rounded=0;orthogonalLoop=1;jettySize=auto;html=1;exitX=1;exitY=0.3333333333333333;exitDx=0;exitDy=0;exitPerimeter=0;entryX=0.02;entryY=0.329;entryDx=0;entryDy=0;entryPerimeter=0;endArrow=none;startFill=0;" edge="1" parent="1" source="LHIZpoV1Z9bZ0lgE0Ra1-2" target="9t5kACNgiMn8HCVJOg-w-2">
          <mxGeometry relative="1" as="geometry" />
        </mxCell>
        <mxCell id="9t5kACNgiMn8HCVJOg-w-4" style="edgeStyle=orthogonalEdgeStyle;rounded=0;orthogonalLoop=1;jettySize=auto;html=1;exitX=0;exitY=0.5;exitDx=0;exitDy=0;entryX=1;entryY=0.5;entryDx=0;entryDy=0;dashed=1;startArrow=none;startFill=0;endArrow=classic;endFill=1;" edge="1" parent="1" source="9t5kACNgiMn8HCVJOg-w-6" target="9t5kACNgiMn8HCVJOg-w-2">
          <mxGeometry relative="1" as="geometry">
            <mxPoint x="250" y="335" as="targetPoint" />
          </mxGeometry>
        </mxCell>
        <mxCell id="9t5kACNgiMn8HCVJOg-w-5" value="&amp;lt;&amp;lt;extends&amp;gt;&amp;gt;" style="edgeLabel;html=1;align=center;verticalAlign=middle;resizable=0;points=[];" vertex="1" connectable="0" parent="9t5kACNgiMn8HCVJOg-w-4">
          <mxGeometry x="0.1686" y="-3" relative="1" as="geometry">
            <mxPoint x="18" y="3" as="offset" />
          </mxGeometry>
        </mxCell>
        <mxCell id="9t5kACNgiMn8HCVJOg-w-6" value="&lt;font style=&quot;font-size: 10px;&quot;&gt;Disponibilidade ponto&lt;/font&gt;" style="ellipse;whiteSpace=wrap;html=1;" vertex="1" parent="1">
          <mxGeometry x="350" y="320" width="80" height="30" as="geometry" />
        </mxCell>
        <mxCell id="9t5kACNgiMn8HCVJOg-w-7" style="edgeStyle=orthogonalEdgeStyle;rounded=0;orthogonalLoop=1;jettySize=auto;html=1;exitX=0;exitY=0.5;exitDx=0;exitDy=0;entryX=0.5;entryY=1;entryDx=0;entryDy=0;dashed=1;startArrow=none;startFill=0;endArrow=classic;endFill=1;" edge="1" parent="1" source="9t5kACNgiMn8HCVJOg-w-9" target="9t5kACNgiMn8HCVJOg-w-2">
          <mxGeometry relative="1" as="geometry">
            <mxPoint x="5.2000000000000455" y="340" as="targetPoint" />
          </mxGeometry>
        </mxCell>
        <mxCell id="9t5kACNgiMn8HCVJOg-w-8" value="&amp;lt;&amp;lt;extends&amp;gt;&amp;gt;" style="edgeLabel;html=1;align=center;verticalAlign=middle;resizable=0;points=[];" vertex="1" connectable="0" parent="9t5kACNgiMn8HCVJOg-w-7">
          <mxGeometry x="0.1686" y="-3" relative="1" as="geometry">
            <mxPoint x="18" y="3" as="offset" />
          </mxGeometry>
        </mxCell>
        <mxCell id="9t5kACNgiMn8HCVJOg-w-9" value="&lt;font style=&quot;font-size: 10px;&quot;&gt;Disponibilidade app&lt;/font&gt;" style="ellipse;whiteSpace=wrap;html=1;" vertex="1" parent="1">
          <mxGeometry x="350" y="360" width="80" height="30" as="geometry" />
        </mxCell>
      </root>
    </mxGraphModel>
  </diagram>
</mxfile>
